<svg id="Capa_1" enable-background="new 0 0 510 510" height="512" viewBox="0 0 510 510" width="512" xmlns="http://www.w3.org/2000/svg" xmlns:xlink="http://www.w3.org/1999/xlink"><linearGradient id="SVGID_1_" gradientUnits="userSpaceOnUse" x1="20" x2="68.374" y1="255" y2="255"><stop offset="0" stop-color="#fee97d"/><stop offset="1" stop-color="#fac600"/></linearGradient><linearGradient id="SVGID_2_" gradientUnits="userSpaceOnUse" x1="47" x2="47" y1="504.5" y2="389.564"><stop offset="0" stop-color="#fac600" stop-opacity="0"/><stop offset=".6899" stop-color="#d68c3d" stop-opacity=".69"/><stop offset="1" stop-color="#c5715a"/></linearGradient><linearGradient id="SVGID_3_" gradientUnits="userSpaceOnUse" x1="133" x2="410.406" y1="85" y2="362.406"><stop offset="0" stop-color="#eaf6ff"/><stop offset="1" stop-color="#b3dafe"/></linearGradient><linearGradient id="SVGID_4_" gradientUnits="userSpaceOnUse" x1="402.951" x2="175.721" y1="347.395" y2="120.165"><stop offset="0" stop-color="#8ac9fe" stop-opacity="0"/><stop offset=".0634" stop-color="#85c2f3" stop-opacity=".063"/><stop offset=".3677" stop-color="#70a3c3" stop-opacity=".368"/><stop offset=".6362" stop-color="#608ca0" stop-opacity=".636"/><stop offset=".8561" stop-color="#577e8b" stop-opacity=".856"/><stop offset="1" stop-color="#537983"/></linearGradient><linearGradient id="lg1"><stop offset="0" stop-color="#d8ecfe" stop-opacity="0"/><stop offset=".7867" stop-color="#9bd1fe" stop-opacity=".787"/><stop offset="1" stop-color="#8ac9fe"/></linearGradient><linearGradient id="SVGID_5_" gradientUnits="userSpaceOnUse" x1="255" x2="255" xlink:href="#lg1" y1="296" y2="412.842"/><linearGradient id="SVGID_6_" gradientUnits="userSpaceOnUse" x1="160.743" x2="331.537" y1="102.19" y2="272.985"><stop offset="0" stop-color="#a0d4ff"/><stop offset="1" stop-color="#0593fc"/></linearGradient><linearGradient id="lg2"><stop offset="0" stop-color="#a2e62e"/><stop offset=".1231" stop-color="#97de30"/><stop offset=".3395" stop-color="#79cb36"/><stop offset=".6234" stop-color="#4aab3f"/><stop offset=".9609" stop-color="#09804c"/><stop offset="1" stop-color="#017b4e"/></linearGradient><linearGradient id="SVGID_7_" gradientUnits="userSpaceOnUse" x1="224.692" x2="403.073" xlink:href="#lg2" y1="75.639" y2="254.019"/><linearGradient id="SVGID_8_" gradientUnits="userSpaceOnUse" x1="140.852" x2="254.289" xlink:href="#lg2" y1="203.421" y2="316.858"/><linearGradient id="SVGID_9_" gradientUnits="userSpaceOnUse" x1="327.69" x2="357.288" xlink:href="#lg2" y1="221.678" y2="251.276"/><linearGradient id="SVGID_10_" gradientUnits="userSpaceOnUse" x1="202.091" x2="202.091" y1="259.351" y2="322.638"><stop offset="0" stop-color="#017b4e" stop-opacity="0"/><stop offset=".4693" stop-color="#01764a" stop-opacity=".469"/><stop offset="1" stop-color="#026841"/></linearGradient><linearGradient id="SVGID_11_" gradientUnits="userSpaceOnUse" x1="261.726" x2="296.388" y1="223.641" y2="333.495"><stop offset="0" stop-color="#2740b0" stop-opacity="0"/><stop offset=".3153" stop-color="#243ba4" stop-opacity=".315"/><stop offset=".8855" stop-color="#1b2d84" stop-opacity=".886"/><stop offset="1" stop-color="#192a7d"/></linearGradient><linearGradient id="SVGID_12_" gradientUnits="userSpaceOnUse" x1="20.629" x2="81.814" xlink:href="#lg1" y1="223.167" y2="223.167"/><g><path d="m47 510c-19.047 0-34.488-15.441-34.488-34.488v-441.024c0-19.047 15.441-34.488 34.488-34.488 19.047 0 34.488 15.441 34.488 34.488v441.025c0 19.046-15.441 34.487-34.488 34.487z" fill="url(#SVGID_1_)"/><path d="m81.49 365v100.23l-68.98-68.98v-31.25z" fill="url(#SVGID_2_)"/><g><path d="m497.632 17.888c-155.797-63.934-313.741 68.04-469.675 16.748-13.621-4.48-27.957 4.718-27.957 18.074v325.812c0 7.603 4.846 14.503 12.368 17.589 155.795 63.934 313.738-68.038 469.675-16.747 13.621 4.48 27.956-4.718 27.956-18.075v-325.811c.001-7.603-4.845-14.503-12.367-17.59z" fill="url(#SVGID_3_)"/><path d="m356.516 108.862c-24.869-27.28-60.693-44.401-100.517-44.401-75.101 0-135.982 60.881-135.982 135.982 0 39.823 17.12 75.647 44.401 100.517l89.834 89.834c76.087-18.08 152.175-36.301 227.792-11.429 13.621 4.48 27.956-4.718 27.956-18.075v-98.944z" fill="url(#SVGID_4_)"/><path d="m0 258.607v119.915c0 7.603 4.846 14.503 12.368 17.589 155.795 63.934 313.738-68.038 469.675-16.747 13.621 4.48 27.956-4.718 27.956-18.075v-102.682z" fill="url(#SVGID_5_)"/><g><path d="m390.983 199.447c0 75.102-60.882 135.984-135.984 135.984-37.551 0-67.547-17.221-92.155-41.829s-43.829-56.604-43.829-94.155c0-39.898 17.183-75.783 44.551-100.658 24.149-21.949 56.229-33.726 91.433-33.726 25.704 0 49.742 5.532 70.244 17.924 39.401 23.816 65.74 67.062 65.74 116.46z" fill="url(#SVGID_6_)"/><path d="m328.74 112.564c8.669-8.669 6.996-23.229-3.495-29.572-20.502-12.395-44.54-19.53-70.245-19.53-34.92 0-66.762 13.168-90.843 34.803-1.53 1.374-2.398 3.338-2.398 5.394 0 6.462 7.813 9.699 12.383 5.129 8.843-8.843 23.181-8.843 32.025 0 11.77 11.77 27.733 18.382 44.378 18.382h13.997c12.148 0 21.996 9.848 21.996 21.996v1.287c0 5.834-2.317 11.429-6.443 15.554-8.59 8.59-8.59 22.517 0 31.108 12.172 12.172 31.907 12.172 44.08 0l17.744-17.744c7.405-7.405 7.405-19.41 0-26.814l-13.179-13.179c-7.405-7.404-7.405-19.41 0-26.814z" fill="url(#SVGID_7_)"/><path d="m221.641 245.551c-12.21 0-18.325-14.762-9.691-23.396 6.074-6.074 6.074-15.922 0-21.996-6.074-6.074-15.922-6.074-21.996 0l-4.932 4.932c-4.896 4.896-12.835 4.896-17.731 0-6.615-6.615-10.331-15.587-10.331-24.942 0-10.043-8.141-18.184-18.184-18.184-8.868 0-16.484 6.389-17.931 15.138-1.136 6.865-1.757 13.904-1.823 21.075-.693 75.732 59.999 137.119 135.735 137.252 5.201.009 10.335-.275 15.384-.835 6.48-.719 9.286-8.57 4.676-13.18-3.024-3.024-3.024-7.928 0-10.952 9.897-9.897 9.897-25.943 0-35.84l-12.029-12.029c-10.913-10.912-25.714-17.043-41.147-17.043z" fill="url(#SVGID_8_)"/><path d="m330.261 211.825c-6.92 6.92-6.92 18.139 0 25.059l4.858 4.858c3.429 3.429 3.429 8.988 0 12.417-5.531 5.531-1.614 14.988 6.208 14.988 13.915 0 25.196-11.281 25.196-25.196 0-10.179-2.953-20.14-8.5-28.675l-.376-.579c-6.139-9.445-19.419-10.838-27.386-2.872z" fill="url(#SVGID_9_)"/><path d="m121.943 227.71c12.917 61.537 67.218 107.605 132.813 107.72 5.201.009 10.335-.275 15.384-.835 6.48-.719 9.286-8.57 4.676-13.18-3.024-3.024-3.024-7.928 0-10.952 9.897-9.897 9.897-25.943 0-35.84l-12.029-12.029c-10.913-10.913-25.714-17.044-41.147-17.044-9.845 0-15.722-9.597-13.104-17.841h-86.593z" fill="url(#SVGID_10_)"/><path d="m390.983 199.447c0 75.101-60.883 135.984-135.984 135.984-3.685 0-7.338-.144-10.948-.437-59.678-4.751-108.499-48.037-121.58-104.964-2.261-9.828-3.456-20.067-3.456-30.583 0-6.756.491-13.396 1.445-19.886h269.078c.955 6.49 1.445 13.129 1.445 19.886z" fill="url(#SVGID_11_)"/></g></g><path d="m81.49 45.61v367.23c-23.08-2.12-46.12-7.29-69.12-16.73-7.52-3.09-12.37-9.98-12.37-17.59v-325.81c0-13.36 14.34-22.55 27.96-18.07 17.82 5.86 35.67 9.33 53.53 10.97z" fill="url(#SVGID_12_)"/></g></svg>